HIERARCHY
ROOT newVegas:Hips
{
	OFFSET 0.000000 96.479958 0.000000
	CHANNELS 6 Xposition Yposition Zposition Xrotation Yrotation Zrotation
	JOINT newVegas:Pelvis
	{
		OFFSET 0.000000 0.000000 0.000000
		CHANNELS 3 Xrotation Yrotation Zrotation
		JOINT newVegas:LeftUpLeg
		{
			OFFSET 18.735201 -5.666702 -4.541200
			CHANNELS 3 Xrotation Yrotation Zrotation
			JOINT newVegas:LeftLeg
			{
				OFFSET -0.021200 -31.938179 0.493100
				CHANNELS 3 Xrotation Yrotation Zrotation
				JOINT newVegas:LeftFoot
				{
					OFFSET 0.021200 -31.938179 -4.336299
					CHANNELS 3 Xrotation Yrotation Zrotation
					JOINT newVegas:LeftToeBase
					{
						OFFSET 0.943001 -26.722000 15.023500
						CHANNELS 3 Xrotation Yrotation Zrotation
						End Site
						{
							OFFSET 0.000000 30.670183 0.000000
						}
					}
				}
				JOINT newVegas:Left_PantLeg
				{
					OFFSET 0.663870 -9.044666 -1.108900
					CHANNELS 3 Xrotation Yrotation Zrotation
					End Site
					{
						OFFSET 1.415995 20.635357 0.000000
					}
				}
			}
		}
		JOINT newVegas:RightUpLeg
		{
			OFFSET -18.735201 -5.666702 -4.541200
			CHANNELS 3 Xrotation Yrotation Zrotation
			JOINT newVegas:RightLeg
			{
				OFFSET 0.018946 -31.938133 0.493100
				CHANNELS 3 Xrotation Yrotation Zrotation
				JOINT newVegas:RightFoot
				{
					OFFSET -0.018946 -31.938126 -4.336299
					CHANNELS 3 Xrotation Yrotation Zrotation
					JOINT newVegas:RightToeBase
					{
						OFFSET -0.943001 -26.722004 15.023500
						CHANNELS 3 Xrotation Yrotation Zrotation
						End Site
						{
							OFFSET 0.000000 30.670187 0.000000
						}
					}
				}
				JOINT newVegas:Right_PantLeg
				{
					OFFSET -0.661674 -9.044716 -1.108900
					CHANNELS 3 Xrotation Yrotation Zrotation
					End Site
					{
						OFFSET -1.415958 20.635269 0.000000
					}
				}
			}
		}
	}
	JOINT newVegas:Spine
	{
		OFFSET 0.000000 10.199997 -0.299500
		CHANNELS 3 Xrotation Yrotation Zrotation
		JOINT newVegas:Spine1
		{
			OFFSET 0.000000 11.900002 -1.516600
			CHANNELS 3 Xrotation Yrotation Zrotation
			JOINT newVegas:Spine2
			{
				OFFSET 0.000000 13.600006 -2.842500
				CHANNELS 3 Xrotation Yrotation Zrotation
				JOINT newVegas:Neck
				{
					OFFSET 0.000000 9.624100 -2.890100
					CHANNELS 3 Xrotation Yrotation Zrotation
					JOINT newVegas:Head
					{
						OFFSET 0.000000 14.068802 -1.351900
						CHANNELS 3 Xrotation Yrotation Zrotation
						JOINT newVegas:Hair_Back
						{
							OFFSET 0.000000 3.231903 -17.524799
							CHANNELS 3 Xrotation Yrotation Zrotation
							End Site
							{
								OFFSET 0.000000 19.849884 0.000000
							}
						}
						JOINT newVegas:Hair_Front
						{
							OFFSET 0.000000 31.260406 4.573800
							CHANNELS 3 Xrotation Yrotation Zrotation
							JOINT newVegas:Hair_Front1
							{
								OFFSET 0.000000 2.284103 11.993300
								CHANNELS 3 Xrotation Yrotation Zrotation
								JOINT newVegas:Hair_Front2
								{
									OFFSET 0.000000 2.284103 11.993300
									CHANNELS 3 Xrotation Yrotation Zrotation
									End Site
									{
										OFFSET 0.000000 12.208862 0.000000
									}
								}
							}
						}
						JOINT newVegas:Jowel
						{
							OFFSET 0.000000 -7.458206 6.864100
							CHANNELS 3 Xrotation Yrotation Zrotation
							End Site
							{
								OFFSET 0.000000 19.849884 0.000000
							}
						}
					}
				}
				JOINT newVegas:LeftShoulder
				{
					OFFSET 15.263000 10.923401 -0.547700
					CHANNELS 3 Xrotation Yrotation Zrotation
					JOINT newVegas:LeftArm
					{
						OFFSET 25.438599 -2.830597 -13.032500
						CHANNELS 3 Xrotation Yrotation Zrotation
						JOINT newVegas:LeftForeArm
						{
							OFFSET 29.960503 0.000000 0.000000
							CHANNELS 3 Xrotation Yrotation Zrotation
							JOINT newVegas:LeftHand
							{
								OFFSET 27.849251 0.000000 0.000000
								CHANNELS 3 Xrotation Yrotation Zrotation
								JOINT newVegas:LeftHandThumb1
								{
									OFFSET 4.487587 -3.305161 6.305391
									CHANNELS 3 Xrotation Yrotation Zrotation
									JOINT newVegas:LeftHandThumb2
									{
										OFFSET 5.480453 -3.164139 3.164143
										CHANNELS 3 Xrotation Yrotation Zrotation
										JOINT newVegas:LeftHandThumb3
										{
											OFFSET 5.159721 -2.978973 2.978967
											CHANNELS 3 Xrotation Yrotation Zrotation
											End Site
											{
												OFFSET 2.494507 5.926697 1.738678
											}
										}
									}
								}
								JOINT newVegas:LeftHandIndex1
								{
									OFFSET 18.578728 -0.527832 5.208049
									CHANNELS 3 Xrotation Yrotation Zrotation
									JOINT newVegas:LeftHandIndex2
									{
										OFFSET 3.192009 0.000000 0.000000
										CHANNELS 3 Xrotation Yrotation Zrotation
										JOINT newVegas:LeftHandIndex3
										{
											OFFSET 3.835129 0.000000 0.000000
											CHANNELS 3 Xrotation Yrotation Zrotation
											End Site
											{
												OFFSET -0.034599 3.816971 0.371180
											}
										}
									}
								}
								JOINT newVegas:LeftHandMiddle1
								{
									OFFSET 18.476105 0.000000 0.000000
									CHANNELS 3 Xrotation Yrotation Zrotation
									JOINT newVegas:LeftHandMiddle2
									{
										OFFSET 3.324875 0.000000 0.000000
										CHANNELS 3 Xrotation Yrotation Zrotation
										JOINT newVegas:LeftHandMiddle3
										{
											OFFSET 4.596550 0.000000 0.000000
											CHANNELS 3 Xrotation Yrotation Zrotation
											End Site
											{
												OFFSET 0.057701 4.578827 0.399218
											}
										}
									}
								}
								JOINT newVegas:LeftHandRing1
								{
									OFFSET 17.732719 0.121887 -4.201567
									CHANNELS 3 Xrotation Yrotation Zrotation
									JOINT newVegas:LeftHandRing2
									{
										OFFSET 2.733170 0.000000 0.000000
										CHANNELS 3 Xrotation Yrotation Zrotation
										JOINT newVegas:LeftHandRing3
										{
											OFFSET 3.178268 0.000000 0.000000
											CHANNELS 3 Xrotation Yrotation Zrotation
											End Site
											{
												OFFSET 0.119102 3.170624 0.185394
											}
										}
									}
								}
								JOINT newVegas:LeftHandPinky1
								{
									OFFSET 15.989624 -0.606689 -7.535461
									CHANNELS 3 Xrotation Yrotation Zrotation
									JOINT newVegas:LeftHandPinky2
									{
										OFFSET 2.538986 0.000000 0.000000
										CHANNELS 3 Xrotation Yrotation Zrotation
										JOINT newVegas:LeftHandPinky3
										{
											OFFSET 2.593102 0.000000 0.000000
											CHANNELS 3 Xrotation Yrotation Zrotation
											End Site
											{
												OFFSET -0.150902 2.584198 0.152708
											}
										}
									}
								}
							}
							JOINT newVegas:Left_Sleeve
							{
								OFFSET 0.267448 -0.649796 0.577675
								CHANNELS 3 Xrotation Yrotation Zrotation
								End Site
								{
									OFFSET 0.000000 15.991241 0.000000
								}
							}
							JOINT newVegas:Left_CapeC
							{
								OFFSET 15.715958 -8.608795 -6.935905
								CHANNELS 3 Xrotation Yrotation Zrotation
								JOINT newVegas:Left_CapeC1
								{
									OFFSET 0.000000 -8.688499 0.000000
									CHANNELS 3 Xrotation Yrotation Zrotation
									End Site
									{
										OFFSET 0.000000 8.688499 0.000000
									}
								}
							}
						}
						JOINT newVegas:Left_CapeB
						{
							OFFSET 26.118385 -8.608795 -7.079235
							CHANNELS 3 Xrotation Yrotation Zrotation
							JOINT newVegas:Left_CapeB1
							{
								OFFSET 0.000000 -8.688499 0.000000
								CHANNELS 3 Xrotation Yrotation Zrotation
								End Site
								{
									OFFSET 0.000000 8.688499 0.000000
								}
							}
						}
						JOINT newVegas:Left_CapeA
						{
							OFFSET 5.115639 -8.608795 -10.395809
							CHANNELS 3 Xrotation Yrotation Zrotation
							JOINT newVegas:Left_CapeA1
							{
								OFFSET 0.000000 -8.688499 0.000000
								CHANNELS 3 Xrotation Yrotation Zrotation
								End Site
								{
									OFFSET 0.000000 8.688499 0.000000
								}
							}
						}
					}
				}
				JOINT newVegas:RightShoulder
				{
					OFFSET -15.263000 10.923401 -0.547700
					CHANNELS 3 Xrotation Yrotation Zrotation
					JOINT newVegas:RightArm
					{
						OFFSET -25.438599 -2.830597 -13.032500
						CHANNELS 3 Xrotation Yrotation Zrotation
						JOINT newVegas:RightForeArm
						{
							OFFSET -29.960503 0.000000 0.000000
							CHANNELS 3 Xrotation Yrotation Zrotation
							JOINT newVegas:RightHand
							{
								OFFSET -27.849251 0.000000 0.000000
								CHANNELS 3 Xrotation Yrotation Zrotation
								JOINT newVegas:RightHandThumb1
								{
									OFFSET -4.487587 -3.305161 6.305391
									CHANNELS 3 Xrotation Yrotation Zrotation
									JOINT newVegas:RightHandThumb2
									{
										OFFSET -5.480453 -3.164139 3.164143
										CHANNELS 3 Xrotation Yrotation Zrotation
										JOINT newVegas:RightHandThumb3
										{
											OFFSET -5.159721 -2.978973 2.978967
											CHANNELS 3 Xrotation Yrotation Zrotation
											End Site
											{
												OFFSET -2.494507 5.926697 1.738678
											}
										}
									}
								}
								JOINT newVegas:RightHandIndex1
								{
									OFFSET -18.578728 -0.527832 5.208049
									CHANNELS 3 Xrotation Yrotation Zrotation
									JOINT newVegas:RightHandIndex2
									{
										OFFSET -3.192009 0.000000 0.000000
										CHANNELS 3 Xrotation Yrotation Zrotation
										JOINT newVegas:RightHandIndex3
										{
											OFFSET -3.835129 0.000000 0.000000
											CHANNELS 3 Xrotation Yrotation Zrotation
											End Site
											{
												OFFSET 0.034599 3.816971 0.371180
											}
										}
									}
								}
								JOINT newVegas:RightHandMiddle1
								{
									OFFSET -18.476105 0.000000 0.000000
									CHANNELS 3 Xrotation Yrotation Zrotation
									JOINT newVegas:RightHandMiddle2
									{
										OFFSET -3.324875 0.000000 0.000000
										CHANNELS 3 Xrotation Yrotation Zrotation
										JOINT newVegas:RightHandMiddle3
										{
											OFFSET -4.596550 0.000000 0.000000
											CHANNELS 3 Xrotation Yrotation Zrotation
											End Site
											{
												OFFSET -0.057701 4.578827 0.399218
											}
										}
									}
								}
								JOINT newVegas:RightHandRing1
								{
									OFFSET -17.732719 0.121887 -4.201567
									CHANNELS 3 Xrotation Yrotation Zrotation
									JOINT newVegas:RightHandRing2
									{
										OFFSET -2.733170 0.000000 0.000000
										CHANNELS 3 Xrotation Yrotation Zrotation
										JOINT newVegas:RightHandRing3
										{
											OFFSET -3.178268 0.000000 0.000000
											CHANNELS 3 Xrotation Yrotation Zrotation
											End Site
											{
												OFFSET -0.119102 3.170624 0.185394
											}
										}
									}
								}
								JOINT newVegas:RightHandPinky1
								{
									OFFSET -15.989624 -0.606689 -7.535461
									CHANNELS 3 Xrotation Yrotation Zrotation
									JOINT newVegas:RightHandPinky2
									{
										OFFSET -2.538986 0.000000 0.000000
										CHANNELS 3 Xrotation Yrotation Zrotation
										JOINT newVegas:RightHandPinky3
										{
											OFFSET -2.593102 0.000000 0.000000
											CHANNELS 3 Xrotation Yrotation Zrotation
											End Site
											{
												OFFSET 0.150902 2.584198 0.152708
											}
										}
									}
								}
							}
							JOINT newVegas:Right_CapeC
							{
								OFFSET -15.715958 -8.608795 -6.935905
								CHANNELS 3 Xrotation Yrotation Zrotation
								JOINT newVegas:Right_CapeC1
								{
									OFFSET 0.000000 -8.688499 0.000000
									CHANNELS 3 Xrotation Yrotation Zrotation
									End Site
									{
										OFFSET 0.000000 8.688499 0.000000
									}
								}
							}
							JOINT newVegas:Right_Sleeve
							{
								OFFSET -0.267448 -0.649994 0.577675
								CHANNELS 3 Xrotation Yrotation Zrotation
								End Site
								{
									OFFSET 0.000000 15.991302 0.000000
								}
							}
						}
						JOINT newVegas:Right_CapeA
						{
							OFFSET -5.115540 -8.608795 -10.395824
							CHANNELS 3 Xrotation Yrotation Zrotation
							JOINT newVegas:Right_CapeA1
							{
								OFFSET 0.000000 -8.688499 0.000000
								CHANNELS 3 Xrotation Yrotation Zrotation
								End Site
								{
									OFFSET 0.000000 8.688499 0.000000
								}
							}
						}
						JOINT newVegas:Right_CapeB
						{
							OFFSET -26.118187 -8.608795 -7.079266
							CHANNELS 3 Xrotation Yrotation Zrotation
							JOINT newVegas:Right_CapeB1
							{
								OFFSET 0.000000 -8.688499 0.000000
								CHANNELS 3 Xrotation Yrotation Zrotation
								End Site
								{
									OFFSET 0.000000 8.688499 0.000000
								}
							}
						}
					}
				}
				JOINT newVegas:Left_Collar
				{
					OFFSET 18.625099 8.655502 8.828100
					CHANNELS 3 Xrotation Yrotation Zrotation
					JOINT newVegas:Left_Collar1
					{
						OFFSET 14.783401 10.540405 -1.259500
						CHANNELS 3 Xrotation Yrotation Zrotation
						End Site
						{
							OFFSET 0.000000 18.199875 0.000000
						}
					}
				}
				JOINT newVegas:Collar_Back
				{
					OFFSET 0.000000 15.630707 -20.132601
					CHANNELS 3 Xrotation Yrotation Zrotation
					End Site
					{
						OFFSET 0.000000 22.523010 0.000000
					}
				}
				JOINT newVegas:Left_Peck
				{
					OFFSET 17.239599 -5.132599 25.482599
					CHANNELS 3 Xrotation Yrotation Zrotation
					End Site
					{
						OFFSET 0.000000 22.523010 0.000000
					}
				}
				JOINT newVegas:Right_Peck
				{
					OFFSET -17.239599 -5.132202 25.482599
					CHANNELS 3 Xrotation Yrotation Zrotation
					End Site
					{
						OFFSET 0.000000 22.523010 0.000000
					}
				}
				JOINT newVegas:Right_Collar
				{
					OFFSET -18.625099 8.655792 8.828100
					CHANNELS 3 Xrotation Yrotation Zrotation
					JOINT newVegas:Right_Collar1
					{
						OFFSET -14.783401 10.539993 -1.259500
						CHANNELS 3 Xrotation Yrotation Zrotation
						End Site
						{
							OFFSET 0.000000 18.199631 0.000000
						}
					}
				}
			}
		}
		JOINT newVegas:Belly
		{
			OFFSET 0.000000 -6.540398 9.014299
			CHANNELS 3 Xrotation Yrotation Zrotation
			End Site
			{
				OFFSET 0.000000 11.566666 0.000000
			}
		}
	}
	JOINT newVegas:ElvisFacialAnim_Joint
	{
		OFFSET 1.000000 -95.330101 -8.825800
		CHANNELS 3 Xrotation Yrotation Zrotation
		End Site
		{
			OFFSET 0.000000 35.315800 0.000000
		}
	}
}
MOTION
Frames: 4
Frame Time: 0.016667
-3.916342 83.270355 2.332137 3.004777 -58.203238 6.441833 -0.000000 0.000000 -0.000000 -38.301846 6.311068 29.650555 47.035784 -9.822858 -10.645411 -10.049959 -1.879521 -11.956709 0.000000 0.000003 -0.000000 0.000000 -0.000001 -0.000000 -34.545738 -3.812530 -30.706020 55.038972 4.468124 -7.825149 -22.928402 0.222264 25.857686 -0.000000 0.000001 -0.000000 0.000001 -0.000000 0.000000 11.191378 0.081089 -2.661025 8.434584 0.027705 -5.592322 8.457050 0.027864 -5.591870 -3.775664 5.323472 1.581315 -3.775658 5.323443 1.581323 -0.000000 -0.000001 0.000000 -3.775597 5.323478 1.581309 -3.775749 5.323427 1.581335 -0.000000 -0.000001 0.000001 -0.000000 -0.000001 0.000000 -6.221667 -11.503861 -4.023831 -23.062171 9.568536 -36.639607 0.046108 -43.169108 -0.011155 22.743746 -5.685863 15.979289 -1.064234 -7.954910 8.490090 2.373398 19.986079 -2.038349 -0.000000 -0.000001 -0.000006 13.340883 -1.006655 10.682262 -0.167586 0.303372 -31.105621 -0.000001 0.000001 -0.000004 8.495449 -0.329568 -0.915305 0.231505 0.661181 -29.901854 -0.000002 -0.000001 0.000001 6.111755 3.150885 -16.210962 0.047064 0.322403 -30.125465 -0.000000 0.000001 -0.000000 -5.636016 7.709865 -13.878616 0.224378 0.276578 -46.588389 0.000000 -0.000003 -0.000000 0.000001 -0.000001 0.000003 0.000001 -0.000001 0.000003 0.000001 -0.000001 0.000003 0.000002 0.000003 -0.000003 0.000003 0.000003 -0.000005 0.000002 0.000003 -0.000003 0.000002 0.000003 -0.000002 -5.488232 10.658263 2.466534 -41.473803 -26.755596 30.079067 24.955476 111.862987 -23.308471 -8.702505 12.423043 -9.801969 0.265014 10.061111 -10.888490 1.383808 -17.412884 3.016282 0.000001 -0.000003 0.000003 19.443621 11.174422 -13.340199 -0.118648 -0.322720 18.035596 -0.000001 0.000001 -0.000001 4.320484 2.436944 -4.811723 0.349139 -0.461250 26.890320 -0.000000 -0.000001 0.000002 -7.005621 -10.695141 5.719831 0.111870 -0.089223 26.155870 0.000002 0.000001 0.000000 -19.433521 -20.238204 5.987852 0.223777 -0.085816 36.844554 -0.000001 0.000002 -0.000001 0.000002 0.000000 -0.000000 0.000002 0.000001 0.000000 0.000000 0.000001 -0.000001 -0.000000 0.000001 -0.000000 -0.000000 0.000002 -0.000000 -0.000000 0.000001 -0.000000 -0.000000 0.000002 0.000001 -0.000001 -0.000000 -0.000000 -0.000001 -0.000000 -0.000000 -0.000001 -0.000000 -0.000000 -0.000001 -0.000000 -0.000000 -0.000001 -0.000000 -0.000000 -0.000001 -0.000000 -0.000000 -0.000001 -0.000000 -0.000000 -0.000001 -0.000001 0.000001 -0.000000 0.000000 -0.000000 
-3.938589 83.263176 2.376819 3.070346 -58.246508 6.475391 -0.000000 0.000001 0.000000 -38.383389 6.199929 29.647577 47.233562 -9.761810 -10.601244 -10.034064 -1.867259 -12.037821 -0.000000 0.000000 0.000000 0.000000 0.000002 -0.000000 -34.541291 -3.674595 -30.608345 55.042015 4.365287 -7.897306 -22.811689 0.201112 26.011280 0.000000 0.000002 0.000000 -0.000000 -0.000001 -0.000003 11.114160 0.097339 -2.637970 8.281115 0.065574 -5.543477 8.303559 0.065721 -5.543011 -3.739355 5.268910 1.573270 -3.739365 5.268899 1.573270 0.000002 -0.000002 0.000000 -3.739350 5.268903 1.573268 -3.739356 5.268892 1.573265 -0.000001 -0.000002 -0.000000 0.000002 -0.000002 0.000001 -5.888012 -11.348860 -4.111616 -23.088824 9.805522 -36.732078 -0.223608 -43.320348 -0.178079 22.774830 -5.786686 15.762762 -1.013343 -7.979050 8.385270 2.373223 19.985740 -2.038487 -0.000000 0.000000 0.000001 13.392780 -0.857332 10.369726 -0.168841 0.304166 -31.279152 0.000000 -0.000000 0.000004 8.501717 -0.177937 -1.121781 0.233293 0.661428 -30.053645 0.000001 -0.000000 -0.000001 6.115922 3.344588 -16.345853 0.048438 0.323117 -30.253046 0.000002 -0.000001 0.000001 -5.669040 7.954083 -13.849586 0.224911 0.276648 -46.648754 0.000000 -0.000002 -0.000000 0.000001 -0.000001 -0.000001 0.000001 -0.000001 -0.000001 0.000000 -0.000001 -0.000001 0.000002 0.000000 -0.000003 0.000002 -0.000000 -0.000006 0.000002 0.000000 -0.000003 0.000001 0.000000 -0.000003 -5.146257 10.690684 2.467580 -41.573746 -27.076236 29.890066 27.927817 112.638323 -26.280032 -8.524177 12.683893 -9.630387 0.058341 10.763333 -10.139027 1.383856 -17.413045 3.016229 0.000001 -0.000001 -0.000001 19.385127 11.008817 -11.664722 -0.125435 -0.326317 19.069057 0.000000 0.000001 0.000002 4.347772 1.811592 -3.663106 0.356064 -0.461062 27.691728 0.000000 0.000001 -0.000003 -6.837574 -11.512235 6.465787 0.115957 -0.091562 26.770257 0.000001 0.000001 -0.000003 -19.227283 -20.531333 6.567945 0.226161 -0.086327 37.287331 -0.000001 0.000003 0.000003 0.000003 0.000001 -0.000003 0.000002 -0.000001 -0.000003 0.000002 0.000001 -0.000003 -0.000000 0.000000 -0.000000 -0.000000 0.000001 -0.000000 -0.000000 0.000000 -0.000000 0.000000 0.000001 0.000001 0.000002 -0.000001 0.000001 0.000002 -0.000001 0.000001 0.000002 -0.000001 0.000001 0.000002 -0.000001 0.000001 0.000002 -0.000001 0.000001 0.000002 -0.000001 0.000001 0.000002 -0.000001 0.000001 0.000001 0.000002 0.000000 -0.000000 0.000001 0.000000 
-3.960620 83.254120 2.421010 3.135975 -58.289668 6.509156 -0.000000 0.000002 -0.000000 -38.448808 6.106658 29.622749 47.424035 -9.684339 -10.554576 -10.059060 -1.860643 -12.056476 -0.000000 -0.000000 -0.000000 0.000000 -0.000000 -0.000000 -34.523656 -3.555509 -30.494455 55.035844 4.240899 -7.970333 -22.731764 0.186347 26.113073 -0.000000 0.000002 -0.000000 -0.000000 0.000001 -0.000002 11.104967 0.110719 -2.625000 8.263423 0.094341 -5.514617 8.285900 0.094477 -5.514153 -3.772316 5.212040 1.560805 -3.772289 5.212014 1.560809 0.000003 -0.000001 -0.000001 -3.772149 5.212033 1.560797 -3.772372 5.212033 1.560816 -0.000001 0.000003 -0.000000 0.000003 -0.000001 -0.000000 -5.880239 -11.203430 -4.136710 -23.070912 10.188961 -36.902549 -0.778786 -43.644035 -0.618941 22.885918 -5.874769 15.640300 -0.936055 -7.901267 8.281059 2.381434 20.006164 -2.031160 0.000001 -0.000003 -0.000005 13.380402 -0.903449 10.415428 -0.168402 0.303882 -31.216270 -0.000001 0.000000 0.000001 8.501002 -0.157127 -1.020043 0.232482 0.661330 -29.983547 -0.000001 -0.000002 0.000001 6.103017 3.435151 -16.138183 0.047764 0.322743 -30.188856 0.000000 -0.000001 -0.000001 -5.678000 8.064677 -13.509521 0.223990 0.276472 -46.546172 0.000000 0.000000 -0.000000 0.000000 0.000001 -0.000003 0.000000 0.000001 -0.000003 0.000000 0.000001 -0.000003 0.000001 -0.000003 0.000004 0.000002 -0.000002 -0.000001 0.000001 -0.000003 0.000004 0.000001 -0.000002 0.000004 -5.152150 10.691582 2.515983 -41.675325 -27.395481 29.700357 30.754945 113.473833 -29.096360 -7.964722 12.641097 -9.574773 -0.272421 11.449446 -9.779562 1.392578 -17.434078 3.008416 0.000002 -0.000001 0.000001 19.283207 11.017625 -10.724524 -0.128895 -0.328178 19.592159 -0.000001 -0.000002 -0.000004 4.335212 1.528094 -2.596392 0.361441 -0.460785 28.315625 0.000004 -0.000002 -0.000001 -6.574471 -12.132973 7.760423 0.121343 -0.094767 27.577521 0.000002 0.000001 -0.000002 -18.816292 -22.102992 7.642803 0.231381 -0.087285 38.248885 -0.000001 -0.000000 0.000000 0.000000 0.000001 0.000002 -0.000001 -0.000002 0.000001 -0.000001 0.000002 0.000002 -0.000001 0.000002 -0.000000 -0.000001 0.000003 -0.000000 -0.000001 0.000002 -0.000000 -0.000001 0.000003 0.000001 -0.000001 0.000000 -0.000000 -0.000001 0.000000 -0.000000 -0.000001 0.000000 -0.000000 -0.000001 0.000000 -0.000000 -0.000001 0.000000 -0.000000 -0.000001 0.000000 -0.000000 -0.000001 0.000000 -0.000000 0.000000 0.000001 -0.000000 -0.000000 0.000002 -0.000000 
-3.981855 83.225815 2.472371 3.243428 -58.327063 6.587475 0.000000 -0.000001 -0.000000 -38.569163 5.974455 29.571967 47.691980 -9.588798 -10.492467 -10.093983 -1.848996 -12.081322 0.000000 0.000000 0.000000 0.000000 -0.000002 0.000000 -34.555064 -3.378511 -30.383277 55.100417 4.097775 -8.052898 -22.646305 0.164613 26.233206 0.000000 -0.000002 0.000000 0.000001 0.000000 -0.000002 11.091252 0.127905 -2.610208 8.236895 0.130303 -5.482830 8.259357 0.130469 -5.482375 -3.813608 5.132779 1.542345 -3.813618 5.132782 1.542354 -0.000000 -0.000002 0.000000 -3.813616 5.132794 1.542343 -3.813608 5.132750 1.542351 -0.000000 0.000001 0.000000 -0.000000 -0.000002 0.000000 -5.870534 -11.061416 -4.171692 -22.987244 10.659094 -37.048425 -1.551475 -44.072100 -1.371608 23.004897 -5.957692 15.638838 -0.867461 -7.784723 8.163936 2.371674 19.981935 -2.039805 0.000000 -0.000002 -0.000003 13.356450 -0.993988 10.520304 -0.167641 0.303525 -31.113185 -0.000000 -0.000001 0.000004 8.488160 -0.167012 -0.852470 0.231243 0.661067 -29.882935 -0.000001 0.000001 0.000000 6.084686 3.499106 -15.846333 0.046802 0.322334 -30.097430 0.000002 -0.000001 -0.000000 -5.685245 8.137448 -13.084713 0.222771 0.276372 -46.402383 -0.000000 -0.000005 -0.000001 0.000002 0.000001 -0.000003 0.000002 0.000001 -0.000003 0.000002 0.000000 -0.000003 0.000004 -0.000001 -0.000002 0.000004 -0.000000 -0.000003 0.000004 -0.000001 -0.000002 0.000003 0.000000 -0.000001 -5.178391 10.652661 2.668579 -41.781985 -27.790452 29.400751 35.112753 114.823403 -33.451401 -7.092256 12.745489 -9.489327 -0.610309 12.109751 -9.454138 1.382288 -17.409251 3.017637 0.000002 -0.000002 -0.000001 19.197073 10.951313 -9.698040 -0.132399 -0.330069 20.134783 0.000001 -0.000002 0.000001 4.354865 1.175965 -1.362050 0.367449 -0.460502 29.018984 0.000004 -0.000001 0.000001 -6.208842 -12.853179 9.348209 0.127950 -0.098445 28.547267 0.000004 -0.000001 0.000001 -18.118848 -23.348831 9.489307 0.237877 -0.088345 39.442444 -0.000001 0.000002 -0.000003 0.000002 0.000001 -0.000002 0.000000 0.000001 -0.000003 0.000002 0.000001 -0.000002 0.000000 -0.000001 -0.000002 0.000000 0.000000 -0.000004 0.000000 -0.000001 -0.000002 0.000000 -0.000000 -0.000002 -0.000000 0.000002 -0.000000 -0.000000 0.000002 -0.000000 -0.000000 0.000002 -0.000000 -0.000000 0.000002 -0.000000 -0.000000 0.000002 -0.000000 -0.000000 0.000002 -0.000000 -0.000000 0.000002 -0.000000 0.000000 -0.000000 0.000000 0.000000 -0.000001 -0.000000 
